<?xml version="1.0" standalone="no"?>
<!DOCTYPE svg PUBLIC "-//W3C//DTD SVG 20010904//EN"
 "http://www.w3.org/TR/2001/REC-SVG-20010904/DTD/svg10.dtd">
<svg version="1.0" xmlns="http://www.w3.org/2000/svg"
 width="1280.000000pt" height="640.000000pt" viewBox="0 0 1280.000000 640.000000"
 preserveAspectRatio="xMidYMid meet">
<metadata>
Created by potrace 1.15, written by Peter Selinger 2001-2017
</metadata>
<g transform="translate(0.000000,640.000000) scale(0.100000,-0.100000)"
fill="#2196f3" stroke="none">
<path d="M7934 6093 c-71 -156 -95 -383 -76 -719 15 -253 37 -481 57 -579 31
-152 81 -274 262 -638 l183 -368 -6 -127 c-7 -150 12 -318 51 -457 27 -94 114
-286 167 -367 28 -46 32 -65 79 -395 27 -191 50 -359 51 -373 1 -14 -25 -110
-57 -215 l-58 -190 48 -345 c26 -190 52 -355 56 -367 8 -23 9 -23 234 -23
l226 0 -7 78 c-4 42 -10 84 -14 92 -5 8 -25 19 -45 25 l-38 10 -55 158 -55
159 128 128 c71 71 130 128 131 127 2 -1 35 -142 74 -312 40 -171 76 -316 80
-324 10 -19 228 -101 271 -101 81 0 189 63 224 131 18 33 19 33 -88 69 -49 17
-69 30 -73 44 -2 12 -17 92 -32 178 l-28 158 209 272 209 273 46 -3 c26 -2 52
-9 58 -15 6 -7 28 -120 48 -252 20 -132 57 -368 82 -525 24 -157 60 -386 79
-510 19 -124 40 -248 45 -276 14 -65 60 -163 92 -192 29 -27 102 -46 239 -62
102 -12 149 -4 149 25 0 22 -64 159 -101 217 l-31 47 -54 628 c-30 345 -56
666 -57 713 l-2 84 100 43 c55 23 105 43 111 43 7 0 15 -21 19 -48 4 -26 60
-340 125 -699 l118 -652 54 -118 54 -118 54 -18 c118 -38 254 -31 299 17 36
38 9 98 -81 182 l-52 49 -44 395 -44 395 -5 540 -4 541 97 134 c53 74 99 137
101 140 4 5 5 4 79 -52 94 -73 281 -152 463 -198 l83 -21 72 27 c113 42 278
131 353 190 118 94 200 264 210 441 l6 91 -48 89 c-81 150 -193 292 -321 405
l-61 54 58 80 c81 109 181 305 165 322 -3 2 -117 -45 -255 -104 -181 -78 -251
-112 -253 -125 -3 -15 -24 -7 -138 54 -128 68 -136 75 -158 119 l-22 48 -33
-35 c-30 -32 -43 -36 -252 -84 -121 -28 -240 -53 -265 -57 -208 -28 -486 -139
-727 -290 l-101 -64 -224 0 c-321 0 -598 23 -845 71 -86 17 -121 29 -223 84
-140 75 -197 112 -263 174 -66 61 -99 109 -212 305 -152 266 -264 539 -302
736 -8 47 -56 243 -106 435 -86 333 -94 357 -163 503 -40 83 -77 152 -83 152
-6 0 -22 -26 -37 -57z m3946 -2083 c17 -33 28 -60 25 -60 -2 0 -18 27 -35 60
-17 33 -28 60 -25 60 2 0 18 -27 35 -60z m476 -1197 c36 -3 59 1 87 15 40 22
51 13 15 -13 -36 -25 -92 -37 -122 -25 -28 10 -76 56 -76 72 0 5 10 -3 23 -18
18 -20 35 -28 73 -31z"/>
<path d="M6524 6026 c-19 -19 -34 -42 -34 -52 0 -11 -18 -219 -40 -464 -34
-396 -42 -457 -69 -551 -56 -196 -128 -353 -238 -516 -64 -96 -162 -184 -355
-319 -114 -81 -170 -110 -457 -243 l-327 -151 -314 -4 c-388 -5 -624 -30 -870
-91 -38 -9 -191 -17 -486 -26 l-431 -12 -274 91 c-325 108 -449 133 -889 178
-85 8 -261 33 -390 54 -415 69 -399 68 -537 27 -185 -54 -181 -54 -323 3 -68
28 -127 50 -130 50 -4 0 -11 -15 -16 -32 -6 -18 -17 -34 -25 -36 -9 -2 -72 19
-140 47 -126 50 -149 52 -149 12 0 -9 72 -83 160 -164 88 -82 160 -151 160
-155 -1 -4 -28 -28 -60 -53 -66 -52 -222 -245 -264 -326 -25 -50 -26 -60 -26
-205 0 -135 2 -157 20 -186 11 -18 29 -36 39 -40 11 -4 48 -41 83 -82 60 -70
69 -77 134 -98 50 -15 95 -22 154 -22 84 0 84 0 159 49 l76 50 278 50 278 50
167 -25 166 -26 185 -158 c102 -87 205 -178 228 -202 42 -43 43 -46 58 -153
21 -148 59 -332 100 -491 l35 -130 0 -376 0 -375 -41 -7 c-25 -4 -52 -17 -68
-34 -29 -29 -68 -118 -57 -129 4 -4 72 -13 152 -20 l144 -12 90 52 c50 28 90
57 90 64 0 7 9 13 20 13 17 0 19 -5 13 -32 -8 -44 -16 -52 -79 -88 -62 -36
-104 -82 -104 -114 0 -22 4 -23 164 -35 l165 -12 88 50 88 51 38 112 38 113
51 635 c28 349 52 637 54 638 1 2 191 -8 421 -22 287 -18 448 -32 513 -46 52
-10 133 -22 180 -26 l85 -6 125 -122 c119 -116 137 -130 375 -276 138 -84 252
-155 254 -157 8 -6 -18 -154 -32 -181 -8 -17 -34 -33 -87 -54 -41 -16 -81 -34
-87 -40 -19 -15 -16 -52 5 -71 40 -36 70 -40 230 -26 l154 12 26 41 c23 37
130 256 145 299 6 16 12 13 57 -20 27 -20 50 -42 49 -48 0 -5 -17 -57 -37
-115 l-37 -105 -65 -27 c-36 -14 -71 -36 -79 -48 -13 -19 -11 -24 25 -61 69
-71 73 -72 231 -43 76 14 141 28 144 32 4 4 39 77 78 162 82 177 88 203 97
451 l7 167 -83 93 c-45 52 -93 110 -105 129 -12 19 -32 44 -44 54 -11 11 -21
30 -21 43 0 13 27 187 60 386 l60 362 75 175 75 175 10 155 c5 85 17 185 27
222 l18 66 222 196 c171 152 237 216 291 288 146 195 254 392 317 580 63 189
63 193 44 564 -9 182 -20 407 -24 499 -8 167 -8 168 -37 201 -25 28 -37 34
-70 34 -32 0 -47 -7 -74 -34z"/>
</g>
</svg>